<svg width="48" height="48" viewBox="0 0 48 48" fill="none" xmlns="http://www.w3.org/2000/svg">
<path d="M1.60009 25.6018H26.5455L22.8653 29.266C22.7154 29.4148 22.5963 29.5917 22.5151 29.7867C22.4339 29.9817 22.392 30.1908 22.392 30.4021C22.392 30.6133 22.4339 30.8224 22.5151 31.0174C22.5963 31.2124 22.7154 31.3894 22.8653 31.5381C23.0141 31.6881 23.1911 31.8072 23.386 31.8884C23.581 31.9696 23.7902 32.0114 24.0014 32.0114C24.2126 32.0114 24.4218 31.9696 24.6168 31.8884C24.8117 31.8072 24.9887 31.6881 25.1375 31.5381L31.5378 25.1378C31.6835 24.9856 31.7977 24.8061 31.8739 24.6097C32.0339 24.2202 32.0339 23.7832 31.8739 23.3937C31.7977 23.1973 31.6835 23.0178 31.5378 22.8656L25.1375 16.4653C24.8362 16.164 24.4275 15.9947 24.0014 15.9947C23.5753 15.9947 23.1666 16.164 22.8653 16.4653C22.564 16.7666 22.3948 17.1752 22.3948 17.6013C22.3948 18.0274 22.564 18.4361 22.8653 18.7374L26.5455 22.4016H1.60009C1.17572 22.4016 0.768732 22.5702 0.468656 22.8703C0.168581 23.1703 0 23.5773 0 24.0017C0 24.4261 0.168581 24.8331 0.468656 25.1331C0.768732 25.4332 1.17572 25.6018 1.60009 25.6018Z" fill="black"/>
<path d="M1.60009 25.6018H26.5455L22.8653 29.266C22.7154 29.4148 22.5963 29.5917 22.5151 29.7867C22.4339 29.9817 22.392 30.1908 22.392 30.4021C22.392 30.6133 22.4339 30.8224 22.5151 31.0174C22.5963 31.2124 22.7154 31.3894 22.8653 31.5381C23.0141 31.6881 23.1911 31.8072 23.386 31.8884C23.581 31.9696 23.7902 32.0114 24.0014 32.0114C24.2126 32.0114 24.4218 31.9696 24.6168 31.8884C24.8117 31.8072 24.9887 31.6881 25.1375 31.5381L31.5378 25.1378C31.6835 24.9856 31.7977 24.8061 31.8739 24.6097C32.0339 24.2202 32.0339 23.7832 31.8739 23.3937C31.7977 23.1973 31.6835 23.0178 31.5378 22.8656L25.1375 16.4653C24.8362 16.164 24.4275 15.9947 24.0014 15.9947C23.5753 15.9947 23.1666 16.164 22.8653 16.4653C22.564 16.7666 22.3948 17.1752 22.3948 17.6013C22.3948 18.0274 22.564 18.4361 22.8653 18.7374L26.5455 22.4016H1.60009C1.17572 22.4016 0.768732 22.5702 0.468656 22.8703C0.168581 23.1703 0 23.5773 0 24.0017C0 24.4261 0.168581 24.8331 0.468656 25.1331C0.768732 25.4332 1.17572 25.6018 1.60009 25.6018Z" fill="url(#paint0_linear_332_782)"/>
<path d="M24.0014 0C18.829 0.0203782 13.7998 1.70125 9.65453 4.79506C5.50928 7.88887 2.46712 12.2321 0.97608 17.185C0.912374 17.3888 0.89009 17.6032 0.910541 17.8157C0.930992 18.0282 0.993764 18.2345 1.09516 18.4224C1.19655 18.6103 1.33452 18.776 1.50094 18.9097C1.66735 19.0434 1.85885 19.1425 2.06414 19.2011C2.47154 19.3199 2.90945 19.2721 3.28155 19.068C3.65364 18.864 3.92944 18.5205 4.04826 18.1131C5.46749 13.3187 8.56614 9.19599 12.7769 6.49974C16.9876 3.8035 22.0286 2.71416 26.9769 3.43119C31.9252 4.14821 36.4497 6.62362 39.7219 10.4042C42.9941 14.1847 44.7951 19.0174 44.7951 24.0174C44.7951 29.0174 42.9941 33.8501 39.7219 37.6306C36.4497 41.4112 31.9252 43.8866 26.9769 44.6036C22.0286 45.3206 16.9876 44.2313 12.7769 41.5351C8.56614 38.8388 5.46749 34.7161 4.04826 29.9217C3.99282 29.7171 3.89729 29.5256 3.76719 29.3582C3.6371 29.1908 3.47504 29.051 3.29044 28.9468C3.10584 28.8426 2.90237 28.7761 2.69185 28.7512C2.48134 28.7263 2.26797 28.7434 2.06414 28.8017C1.86064 28.8604 1.67083 28.9589 1.50571 29.0916C1.34058 29.2242 1.20344 29.3883 1.10222 29.5744C1.00101 29.7605 0.93774 29.9648 0.916087 30.1754C0.894433 30.3861 0.914825 30.599 0.97608 30.8018C2.2379 35.0728 4.66314 38.9085 7.9805 41.8798C11.2979 44.8511 15.3765 46.8408 19.7601 47.6264C24.1438 48.412 28.6596 47.9625 32.8023 46.3281C36.945 44.6937 40.5513 41.9389 43.2178 38.3719C45.8843 34.8048 47.5057 30.5663 47.9007 26.1304C48.2958 21.6944 47.4488 17.2361 45.4546 13.254C43.4604 9.27197 40.3977 5.92328 36.6089 3.58255C32.8202 1.24183 28.4549 0.00138884 24.0014 0Z" fill="black"/>
<path d="M24.0014 0C18.829 0.0203782 13.7998 1.70125 9.65453 4.79506C5.50928 7.88887 2.46712 12.2321 0.97608 17.185C0.912374 17.3888 0.89009 17.6032 0.910541 17.8157C0.930992 18.0282 0.993764 18.2345 1.09516 18.4224C1.19655 18.6103 1.33452 18.776 1.50094 18.9097C1.66735 19.0434 1.85885 19.1425 2.06414 19.2011C2.47154 19.3199 2.90945 19.2721 3.28155 19.068C3.65364 18.864 3.92944 18.5205 4.04826 18.1131C5.46749 13.3187 8.56614 9.19599 12.7769 6.49974C16.9876 3.8035 22.0286 2.71416 26.9769 3.43119C31.9252 4.14821 36.4497 6.62362 39.7219 10.4042C42.9941 14.1847 44.7951 19.0174 44.7951 24.0174C44.7951 29.0174 42.9941 33.8501 39.7219 37.6306C36.4497 41.4112 31.9252 43.8866 26.9769 44.6036C22.0286 45.3206 16.9876 44.2313 12.7769 41.5351C8.56614 38.8388 5.46749 34.7161 4.04826 29.9217C3.99282 29.7171 3.89729 29.5256 3.76719 29.3582C3.6371 29.1908 3.47504 29.051 3.29044 28.9468C3.10584 28.8426 2.90237 28.7761 2.69185 28.7512C2.48134 28.7263 2.26797 28.7434 2.06414 28.8017C1.86064 28.8604 1.67083 28.9589 1.50571 29.0916C1.34058 29.2242 1.20344 29.3883 1.10222 29.5744C1.00101 29.7605 0.93774 29.9648 0.916087 30.1754C0.894433 30.3861 0.914825 30.599 0.97608 30.8018C2.2379 35.0728 4.66314 38.9085 7.9805 41.8798C11.2979 44.8511 15.3765 46.8408 19.7601 47.6264C24.1438 48.412 28.6596 47.9625 32.8023 46.3281C36.945 44.6937 40.5513 41.9389 43.2178 38.3719C45.8843 34.8048 47.5057 30.5663 47.9007 26.1304C48.2958 21.6944 47.4488 17.2361 45.4546 13.254C43.4604 9.27197 40.3977 5.92328 36.6089 3.58255C32.8202 1.24183 28.4549 0.00138884 24.0014 0Z" fill="url(#paint1_linear_332_782)"/>
<defs>
<linearGradient id="paint0_linear_332_782" x1="1.86735" y1="15.9947" x2="55.5471" y2="18.7353" gradientUnits="userSpaceOnUse">
<stop stop-color="#11AE88"/>
<stop offset="1" stop-color="#2A84EE"/>
</linearGradient>
<linearGradient id="paint1_linear_332_782" x1="3.65175" y1="4.08636e-05" x2="82.8198" y2="1.98513" gradientUnits="userSpaceOnUse">
<stop stop-color="#11AE88"/>
<stop offset="1" stop-color="#2A84EE"/>
</linearGradient>
</defs>
</svg>
