<svg width="48" height="48" viewBox="0 0 48 48" fill="none" xmlns="http://www.w3.org/2000/svg">
<path d="M46.3952 22.401L21.4498 22.401L25.13 18.7368C25.28 18.588 25.399 18.4111 25.4803 18.2161C25.5615 18.0211 25.6033 17.812 25.6033 17.6007C25.6033 17.3895 25.5615 17.1804 25.4803 16.9854C25.399 16.7904 25.28 16.6134 25.13 16.4647C24.9813 16.3147 24.8043 16.1957 24.6093 16.1144C24.4143 16.0332 24.2052 15.9914 23.9939 15.9914C23.7827 15.9914 23.5736 16.0332 23.3786 16.1144C23.1836 16.1957 23.0066 16.3147 22.8579 16.4647L16.4575 22.865C16.3118 23.0172 16.1976 23.1967 16.1215 23.3931C15.9614 23.7826 15.9614 24.2196 16.1215 24.6091C16.1976 24.8056 16.3118 24.985 16.4575 25.1372L22.8579 31.5375C23.1592 31.8388 23.5678 32.0081 23.9939 32.0081C24.4201 32.0081 24.8287 31.8388 25.13 31.5375C25.4313 31.2362 25.6006 30.8276 25.6006 30.4015C25.6006 29.9754 25.4313 29.5667 25.13 29.2654L21.4498 25.6012L46.3952 25.6012C46.8196 25.6012 47.2266 25.4326 47.5267 25.1325C47.8268 24.8325 47.9953 24.4255 47.9953 24.0011C47.9953 23.5767 47.8268 23.1697 47.5267 22.8697C47.2266 22.5696 46.8196 22.401 46.3952 22.401Z" fill="black"/>
<path d="M46.3952 22.401L21.4498 22.401L25.13 18.7368C25.28 18.588 25.399 18.4111 25.4803 18.2161C25.5615 18.0211 25.6033 17.812 25.6033 17.6007C25.6033 17.3895 25.5615 17.1804 25.4803 16.9854C25.399 16.7904 25.28 16.6134 25.13 16.4647C24.9813 16.3147 24.8043 16.1957 24.6093 16.1144C24.4143 16.0332 24.2052 15.9914 23.9939 15.9914C23.7827 15.9914 23.5736 16.0332 23.3786 16.1144C23.1836 16.1957 23.0066 16.3147 22.8579 16.4647L16.4575 22.865C16.3118 23.0172 16.1976 23.1967 16.1215 23.3931C15.9614 23.7826 15.9614 24.2196 16.1215 24.6091C16.1976 24.8056 16.3118 24.985 16.4575 25.1372L22.8579 31.5375C23.1592 31.8388 23.5678 32.0081 23.9939 32.0081C24.4201 32.0081 24.8287 31.8388 25.13 31.5375C25.4313 31.2362 25.6006 30.8276 25.6006 30.4015C25.6006 29.9754 25.4313 29.5667 25.13 29.2654L21.4498 25.6012L46.3952 25.6012C46.8196 25.6012 47.2266 25.4326 47.5267 25.1325C47.8268 24.8325 47.9953 24.4255 47.9953 24.0011C47.9953 23.5767 47.8268 23.1697 47.5267 22.8697C47.2266 22.5696 46.8196 22.401 46.3952 22.401Z" fill="url(#paint0_linear_332_785)"/>
<path d="M23.9939 48.0028C29.1664 47.9824 34.1956 46.3016 38.3408 43.2077C42.4861 40.1139 45.5282 35.7707 47.0193 30.8178C47.083 30.614 47.1053 30.3996 47.0848 30.1871C47.0644 29.9746 47.0016 29.7683 46.9002 29.5804C46.7988 29.3925 46.6608 29.2268 46.4944 29.0931C46.328 28.9594 46.1365 28.8603 45.9312 28.8017C45.5238 28.6829 45.0859 28.7307 44.7138 28.9348C44.3417 29.1388 44.0659 29.4824 43.9471 29.8898C42.5279 34.6841 39.4292 38.8068 35.2185 41.5031C31.0078 44.1993 25.9667 45.2886 21.0184 44.5716C16.0701 43.8546 11.5456 41.3792 8.27342 37.5986C5.0012 33.8181 3.20022 28.9854 3.20022 23.9854C3.20022 18.9854 5.0012 14.1527 8.27342 10.3722C11.5456 6.59163 16.0701 4.11622 21.0184 3.39919C25.9667 2.68217 31.0078 3.77151 35.2185 6.46775C39.4292 9.164 42.5279 13.2867 43.9471 18.0811C44.0025 18.2857 44.0981 18.4772 44.2282 18.6446C44.3582 18.812 44.5203 18.9518 44.7049 19.056C44.8895 19.1602 45.093 19.2267 45.3035 19.2516C45.514 19.2766 45.7274 19.2594 45.9312 19.2011C46.1347 19.1424 46.3245 19.0439 46.4896 18.9112C46.6548 18.7786 46.7919 18.6145 46.8931 18.4284C46.9943 18.2424 47.0576 18.0381 47.0793 17.8274C47.1009 17.6167 47.0805 17.4038 47.0193 17.201C45.7574 12.93 43.3322 9.09433 40.0148 6.12302C36.6975 3.15171 32.6189 1.16197 28.2352 0.37638C23.8516 -0.409208 19.3358 0.040346 15.193 1.67475C11.0503 3.30915 7.444 6.06394 4.77755 9.63095C2.11109 13.198 0.48965 17.4365 0.0946182 21.8724C-0.300417 26.3084 0.546529 30.7667 2.54072 34.7488C4.53491 38.7308 7.59768 42.0795 11.3864 44.4203C15.1752 46.761 19.5404 48.0014 23.9939 48.0028Z" fill="black"/>
<path d="M23.9939 48.0028C29.1664 47.9824 34.1956 46.3016 38.3408 43.2077C42.4861 40.1139 45.5282 35.7707 47.0193 30.8178C47.083 30.614 47.1053 30.3996 47.0848 30.1871C47.0644 29.9746 47.0016 29.7683 46.9002 29.5804C46.7988 29.3925 46.6608 29.2268 46.4944 29.0931C46.328 28.9594 46.1365 28.8603 45.9312 28.8017C45.5238 28.6829 45.0859 28.7307 44.7138 28.9348C44.3417 29.1388 44.0659 29.4824 43.9471 29.8898C42.5279 34.6841 39.4292 38.8068 35.2185 41.5031C31.0078 44.1993 25.9667 45.2886 21.0184 44.5716C16.0701 43.8546 11.5456 41.3792 8.27342 37.5986C5.0012 33.8181 3.20022 28.9854 3.20022 23.9854C3.20022 18.9854 5.0012 14.1527 8.27342 10.3722C11.5456 6.59163 16.0701 4.11622 21.0184 3.39919C25.9667 2.68217 31.0078 3.77151 35.2185 6.46775C39.4292 9.164 42.5279 13.2867 43.9471 18.0811C44.0025 18.2857 44.0981 18.4772 44.2282 18.6446C44.3582 18.812 44.5203 18.9518 44.7049 19.056C44.8895 19.1602 45.093 19.2267 45.3035 19.2516C45.514 19.2766 45.7274 19.2594 45.9312 19.2011C46.1347 19.1424 46.3245 19.0439 46.4896 18.9112C46.6548 18.7786 46.7919 18.6145 46.8931 18.4284C46.9943 18.2424 47.0576 18.0381 47.0793 17.8274C47.1009 17.6167 47.0805 17.4038 47.0193 17.201C45.7574 12.93 43.3322 9.09433 40.0148 6.12302C36.6975 3.15171 32.6189 1.16197 28.2352 0.37638C23.8516 -0.409208 19.3358 0.040346 15.193 1.67475C11.0503 3.30915 7.444 6.06394 4.77755 9.63095C2.11109 13.198 0.48965 17.4365 0.0946182 21.8724C-0.300417 26.3084 0.546529 30.7667 2.54072 34.7488C4.53491 38.7308 7.59768 42.0795 11.3864 44.4203C15.1752 46.761 19.5404 48.0014 23.9939 48.0028Z" fill="url(#paint1_linear_332_785)"/>
<defs>
<linearGradient id="paint0_linear_332_785" x1="46.128" y1="32.0081" x2="-7.55181" y2="29.2675" gradientUnits="userSpaceOnUse">
<stop stop-color="#11AE88"/>
<stop offset="1" stop-color="#2A84EE"/>
</linearGradient>
<linearGradient id="paint1_linear_332_785" x1="44.3436" y1="48.0028" x2="-34.8245" y2="46.0177" gradientUnits="userSpaceOnUse">
<stop stop-color="#11AE88"/>
<stop offset="1" stop-color="#2A84EE"/>
</linearGradient>
</defs>
</svg>
