<svg width="81" height="81" viewBox="0 0 81 81" fill="none" xmlns="http://www.w3.org/2000/svg">
<mask id="mask0_332_921" style="mask-type:luminance" maskUnits="userSpaceOnUse" x="4" y="4" width="72" height="72">
<path d="M4.79065 40.3402C4.79065 59.9741 20.7068 75.8903 40.3407 75.8903C59.9746 75.8903 75.8908 59.9741 75.8908 40.3402C75.8908 20.7063 59.9746 4.79013 40.3407 4.79013C20.7068 4.79013 4.79065 20.7063 4.79065 40.3402Z" fill="white"/>
</mask>
<g mask="url(#mask0_332_921)">
<path d="M4.79077 40.3407C4.79077 59.9746 20.707 75.8908 40.3408 75.8908C59.9747 75.8908 75.8909 59.9746 75.8909 40.3407C75.8909 20.7068 59.9747 4.79062 40.3408 4.79062C20.707 4.79062 4.79077 20.7068 4.79077 40.3407Z" fill="url(#paint0_linear_332_921)"/>
</g>
<mask id="mask1_332_921" style="mask-type:luminance" maskUnits="userSpaceOnUse" x="0" y="0" width="81" height="81">
<path d="M0 0H80.4357V80.1082H0V0Z" fill="white"/>
</mask>
<g mask="url(#mask1_332_921)">
<path d="M28.8551 42.9396L33.0729 54.6139C33.0729 54.6139 33.6001 55.7057 34.165 55.7057C34.7299 55.7057 43.1279 46.9688 43.1279 46.9688L52.4673 28.9302L29.0057 39.9266L28.8551 42.9396Z" fill="#C8DAEA"/>
</g>
<mask id="mask2_332_921" style="mask-type:luminance" maskUnits="userSpaceOnUse" x="0" y="0" width="81" height="81">
<path d="M0 0H80.4357V80.1082H0V0Z" fill="white"/>
</mask>
<g mask="url(#mask2_332_921)">
<path d="M34.4472 45.9331L33.6373 54.538C33.6373 54.538 33.2984 57.1741 35.9345 54.538C38.5707 51.9019 41.0938 49.8683 41.0938 49.8683" fill="#A9C6D8"/>
</g>
<mask id="mask3_332_921" style="mask-type:luminance" maskUnits="userSpaceOnUse" x="0" y="0" width="81" height="81">
<path d="M0 0H80.4357V80.1082H0V0Z" fill="white"/>
</mask>
<g mask="url(#mask3_332_921)">
<path d="M28.9314 43.3557L20.2563 40.5289C20.2563 40.5289 19.2208 40.1086 19.5534 39.1545C19.6221 38.9577 19.7604 38.7905 20.1746 38.5016C22.0973 37.1619 55.756 25.0637 55.756 25.0637C55.756 25.0637 56.7065 24.7437 57.2684 24.9564C57.5251 25.0537 57.689 25.1637 57.827 25.565C57.8773 25.7111 57.9062 26.0217 57.9023 26.3308C57.8993 26.5538 57.8722 26.7601 57.8523 27.084C57.6474 30.392 51.5135 55.0776 51.5135 55.0776C51.5135 55.0776 51.1466 56.5222 49.8315 56.5713C49.3519 56.5894 48.7698 56.4921 48.0739 55.8934C45.4935 53.6737 36.5738 47.6793 34.6031 46.3612C34.4917 46.2871 34.4603 46.1904 34.4414 46.0961C34.4136 45.9575 34.5619 45.7846 34.5619 45.7846C34.5619 45.7846 50.093 31.9788 50.5064 30.5303C50.5383 30.4179 50.4181 30.3625 50.2551 30.411C49.2236 30.7906 31.3413 42.0822 29.3679 43.3295C29.2525 43.4024 28.929 43.3554 28.929 43.3554" fill="white"/>
</g>
<defs>
<linearGradient id="paint0_linear_332_921" x1="40.3408" y1="75.8905" x2="40.3408" y2="4.79032" gradientUnits="userSpaceOnUse">
<stop stop-color="#1D93D2"/>
<stop offset="1" stop-color="#38B0E3"/>
</linearGradient>
</defs>
</svg>
