<svg width="70" height="70" viewBox="0 0 70 70" fill="none" xmlns="http://www.w3.org/2000/svg">
<path fill-rule="evenodd" clip-rule="evenodd" d="M35 70C54.33 70 70 54.33 70 35C70 15.67 54.33 0 35 0C15.67 0 0 15.67 0 35C0 54.33 15.67 70 35 70Z" fill="#FF0002"/>
<path fill-rule="evenodd" clip-rule="evenodd" d="M30.1819 41.0953L30.1804 27.8904L42.7892 34.5156L30.1819 41.0953ZM57.8669 25.6022C57.8669 25.6022 57.4104 22.3638 56.0119 20.9377C54.2371 19.0651 52.2479 19.0563 51.3365 18.9477C44.806 18.4718 35.0104 18.4718 35.0104 18.4718H34.99C34.99 18.4718 25.1944 18.4718 18.664 18.9477C17.751 19.0563 15.7633 19.0651 13.9871 20.9377C12.5885 22.3638 12.1335 25.6022 12.1335 25.6022C12.1335 25.6022 11.6669 29.4061 11.6669 33.2085V36.7745C11.6669 40.5784 12.1335 44.3808 12.1335 44.3808C12.1335 44.3808 12.5885 47.6192 13.9871 49.0453C15.7633 50.9179 18.0952 50.8591 19.1335 51.0544C22.8669 51.4157 35.0002 51.5274 35.0002 51.5274C35.0002 51.5274 44.806 51.5127 51.3365 51.0368C52.2479 50.9267 54.2371 50.9179 56.0119 49.0453C57.4104 47.6192 57.8669 44.3808 57.8669 44.3808C57.8669 44.3808 58.3335 40.5784 58.3335 36.7745V33.2085C58.3335 29.4061 57.8669 25.6022 57.8669 25.6022Z" fill="white"/>
</svg>
